<?xml version="1.0" encoding="UTF-8" standalone="no"?>
<!DOCTYPE svg PUBLIC "-//W3C//DTD SVG 1.1//EN" "http://www.w3.org/Graphics/SVG/1.1/DTD/svg11.dtd">
<svg xmlns="http://www.w3.org/2000/svg" version="1.1" viewBox="0 0 364 84" width="364.0pt" height="84.0pt">
<path d="M 0.00 0.00 L 364.00 0.00 L 364.00 84.00 L 81.81 84.00 C 83.71 81.23 85.30 78.47 85.49 75.02 C 85.72 71.99 84.63 69.51 83.56 66.77 C 84.36 64.88 86.63 63.24 84.90 61.25 C 83.06 58.58 78.83 59.65 76.12 59.66 C 75.74 59.58 75.36 59.49 74.98 59.40 C 75.60 58.82 76.21 58.23 76.81 57.63 C 78.06 56.33 79.24 54.98 80.37 53.58 L 80.95 52.85 C 82.82 49.33 83.84 45.42 84.02 41.45 C 84.11 37.89 83.02 34.82 81.87 31.51 C 83.08 22.48 84.97 14.17 82.00 5.19 C 80.21 2.36 77.56 0.12 73.99 0.72 C 66.55 2.07 59.71 6.41 53.78 10.91 C 52.70 10.86 51.63 10.82 50.55 10.79 C 49.86 10.79 49.17 10.79 48.48 10.81 C 45.78 11.00 43.10 11.37 40.47 11.98 C 39.76 12.17 39.06 12.37 38.37 12.60 C 36.90 13.23 35.45 13.90 34.08 14.74 L 33.89 14.96 L 32.56 14.72 C 25.46 13.12 16.97 11.73 9.88 13.82 C 4.92 15.39 2.41 20.39 4.72 25.20 C 6.81 32.20 10.67 38.63 14.85 44.57 C 14.99 47.11 15.23 49.57 16.02 52.00 C 16.46 53.39 17.00 54.74 17.62 56.06 C 18.11 56.86 18.60 57.67 19.14 58.43 C 20.17 59.57 21.26 60.67 22.41 61.73 C 22.77 62.04 23.14 62.33 23.52 62.62 C 24.58 63.29 25.64 63.95 26.71 64.60 C 27.75 65.23 28.78 65.87 29.83 66.48 L 31.22 67.20 C 27.72 68.54 24.11 69.90 20.83 71.71 C 20.09 72.61 18.70 73.74 18.92 75.00 C 18.87 77.51 21.78 78.98 23.97 79.07 C 28.48 79.28 33.30 77.92 37.68 76.90 L 38.12 77.34 C 37.96 79.25 37.69 81.16 37.45 83.06 C 39.81 83.37 42.17 83.72 44.54 84.00 L 0.00 84.00 L 0.00 0.00 Z" fill="#ffffff" />
<path d="M 73.99 0.72 C 77.56 0.12 80.21 2.36 82.00 5.19 C 76.42 6.58 72.36 12.42 68.64 16.50 C 64.59 14.03 60.01 11.73 55.28 11.02 L 53.78 10.91 C 59.71 6.41 66.55 2.07 73.99 0.72 Z" fill="#fec593" />
<path d="M 82.00 5.19 C 84.97 14.17 83.08 22.48 81.87 31.51 C 80.99 29.93 80.05 28.38 79.05 26.86 C 82.30 21.83 81.91 14.35 80.09 8.84 C 75.77 10.78 73.18 14.14 70.70 18.01 C 70.03 17.49 69.34 16.99 68.64 16.50 C 72.36 12.42 76.42 6.58 82.00 5.19 Z" fill="#e36a85" />
<path d="M 80.09 8.84 C 81.91 14.35 82.30 21.83 79.05 26.86 C 76.68 23.53 73.87 20.59 70.70 18.01 C 73.18 14.14 75.77 10.78 80.09 8.84 Z" fill="#f07891" />
<path d="M 48.48 10.81 C 48.70 19.21 50.96 28.50 48.76 36.52 C 47.48 35.29 46.32 34.09 45.64 32.43 C 43.75 25.65 42.43 18.74 40.47 11.98 C 43.10 11.37 45.78 11.00 48.48 10.81 Z" fill="#986344" />
<path d="M 48.48 10.81 C 49.17 10.79 49.86 10.79 50.55 10.79 C 50.73 13.52 50.91 16.25 51.04 18.99 C 49.86 21.12 49.67 22.29 50.09 24.69 C 49.90 28.12 49.92 31.54 50.01 34.96 C 51.28 32.86 51.73 30.18 54.38 29.54 C 59.47 27.85 64.75 27.71 69.65 25.28 C 67.84 23.22 65.97 20.89 63.57 19.50 C 61.02 18.04 57.77 17.42 54.93 16.72 L 55.08 15.16 C 55.44 14.51 55.81 13.87 56.19 13.23 C 59.91 14.38 63.56 15.68 66.95 17.64 C 69.82 20.88 75.03 24.31 75.04 28.99 C 75.36 31.80 74.32 34.34 71.58 35.41 C 67.19 37.00 62.50 37.80 58.00 39.05 C 54.87 40.02 52.05 39.25 48.99 38.51 C 48.42 40.06 47.85 41.62 47.28 43.18 C 47.29 42.27 47.28 41.37 47.28 40.46 C 41.61 42.80 35.60 44.35 29.58 45.47 C 26.08 46.10 22.33 44.28 21.46 40.67 C 20.58 36.11 21.58 31.10 24.54 27.46 C 27.54 23.66 31.72 20.89 34.95 17.21 C 35.31 18.13 35.68 19.04 36.06 19.95 C 32.06 23.74 27.84 26.78 25.35 31.89 C 25.97 32.59 26.58 33.29 27.19 34.00 C 31.88 33.42 36.33 31.96 40.94 31.03 C 42.49 30.60 44.22 31.87 45.64 32.43 C 46.32 34.09 47.48 35.29 48.76 36.52 C 50.96 28.50 48.70 19.21 48.48 10.81 Z" fill="#ffd0a2" />
<path d="M 50.55 10.79 C 51.63 10.82 52.70 10.86 53.78 10.91 L 55.28 11.02 C 55.22 12.40 55.15 13.78 55.08 15.16 L 54.93 16.72 L 54.75 18.98 C 54.44 20.22 54.33 21.48 54.44 22.74 C 53.86 23.81 53.28 24.88 52.70 25.95 C 52.26 25.23 51.82 24.51 51.39 23.79 C 51.52 22.16 51.29 20.59 51.04 18.99 C 50.91 16.25 50.73 13.52 50.55 10.79 Z" fill="#905739" />
<path d="M 55.28 11.02 C 60.01 11.73 64.59 14.03 68.64 16.50 C 69.34 16.99 70.03 17.49 70.70 18.01 C 73.87 20.59 76.68 23.53 79.05 26.86 C 80.05 28.38 80.99 29.93 81.87 31.51 C 83.02 34.82 84.11 37.89 84.02 41.45 L 82.69 42.08 C 80.74 36.27 80.08 30.43 76.41 25.57 C 73.91 21.95 70.91 19.53 66.95 17.64 C 63.56 15.68 59.91 14.38 56.19 13.23 C 55.81 13.87 55.44 14.51 55.08 15.16 C 55.15 13.78 55.22 12.40 55.28 11.02 Z" fill="#eda47c" />
<path d="M 40.47 11.98 C 42.43 18.74 43.75 25.65 45.64 32.43 C 44.22 31.87 42.49 30.60 40.94 31.03 C 36.33 31.96 31.88 33.42 27.19 34.00 C 26.58 33.29 25.97 32.59 25.35 31.89 C 27.84 26.78 32.06 23.74 36.06 19.95 C 37.36 23.06 38.91 25.97 41.22 28.44 C 41.63 23.16 39.66 17.76 38.37 12.60 C 39.06 12.37 39.76 12.17 40.47 11.98 Z" fill="#ffdfbe" />
<path d="M 32.56 14.72 C 28.50 18.04 24.39 21.72 21.36 26.03 C 15.96 23.57 10.93 20.95 4.89 20.49 C 4.81 22.06 4.76 23.63 4.72 25.20 C 2.41 20.39 4.92 15.39 9.88 13.82 C 16.97 11.73 25.46 13.12 32.56 14.72 Z" fill="#fec593" />
<path d="M 38.37 12.60 C 39.66 17.76 41.63 23.16 41.22 28.44 C 38.91 25.97 37.36 23.06 36.06 19.95 C 35.68 19.04 35.31 18.13 34.95 17.21 C 34.66 16.39 34.37 15.56 34.08 14.74 C 35.45 13.90 36.90 13.23 38.37 12.60 Z" fill="#955c3d" />
<path d="M 32.56 14.72 L 33.89 14.96 C 31.24 18.99 27.07 21.30 24.15 25.05 C 20.87 29.20 18.16 33.85 17.57 39.21 C 17.17 43.47 17.52 47.88 17.73 52.15 L 16.02 52.00 C 15.23 49.57 14.99 47.11 14.85 44.57 C 15.18 42.08 15.60 39.60 16.19 37.16 C 17.05 34.24 18.25 31.45 19.69 28.78 C 20.21 27.84 20.78 26.93 21.36 26.03 C 24.39 21.72 28.50 18.04 32.56 14.72 Z" fill="#ea9f76" />
<path d="M 33.89 14.96 L 34.08 14.74 C 34.37 15.56 34.66 16.39 34.95 17.21 C 31.72 20.89 27.54 23.66 24.54 27.46 C 21.58 31.10 20.58 36.11 21.46 40.67 C 22.33 44.28 26.08 46.10 29.58 45.47 C 35.60 44.35 41.61 42.80 47.28 40.46 C 47.28 41.37 47.29 42.27 47.28 43.18 C 45.14 49.38 41.41 55.08 36.86 59.80 C 34.53 60.73 31.72 62.12 29.25 60.96 C 27.37 60.29 26.60 58.62 25.42 57.14 C 23.29 57.40 21.21 57.86 19.14 58.43 C 18.60 57.67 18.11 56.86 17.62 56.06 C 20.28 55.57 22.89 54.95 25.45 54.10 C 22.81 52.87 20.64 52.30 17.73 52.15 C 17.52 47.88 17.17 43.47 17.57 39.21 C 18.16 33.85 20.87 29.20 24.15 25.05 C 27.07 21.30 31.24 18.99 33.89 14.96 Z" fill="#ffc58d" />
<path d="M 127.27 15.35 C 128.95 23.33 130.01 31.83 132.21 39.75 C 133.23 43.26 134.47 46.70 135.51 50.20 C 133.83 50.36 131.45 51.72 130.28 49.84 C 128.79 45.94 128.26 41.64 127.28 37.58 C 124.17 37.62 121.08 37.75 117.98 37.98 C 116.65 42.00 115.68 46.02 115.58 50.28 C 113.72 50.64 112.09 50.74 110.19 50.56 C 111.04 46.46 112.26 42.49 113.66 38.56 C 112.19 38.37 110.73 38.17 109.26 37.95 C 110.74 36.18 112.54 35.87 114.65 35.30 C 116.67 29.46 118.56 23.54 120.91 17.82 C 121.61 15.21 125.15 15.62 127.27 15.35 Z" fill="#33bcf3" />
<path d="M 326.87 15.24 C 328.08 16.20 327.45 18.62 327.54 20.01 C 327.14 28.79 326.16 37.59 326.98 46.17 C 325.93 46.54 324.88 46.92 323.83 47.29 C 323.48 46.10 323.14 44.90 322.79 43.70 C 321.05 45.56 319.85 47.64 317.00 47.71 C 313.79 47.73 312.21 44.90 312.00 42.04 C 311.68 37.35 313.23 31.09 317.68 28.68 C 320.17 27.51 321.70 29.02 323.76 30.16 C 323.80 25.31 323.76 20.49 323.05 15.68 C 324.32 15.50 325.58 15.31 326.87 15.24 Z" fill="#f4725c" />
<path d="M 299.66 15.68 C 299.16 17.44 298.69 19.21 298.27 21.00 C 295.86 20.67 293.44 20.37 291.02 20.10 C 290.99 26.07 291.11 32.03 290.72 37.99 C 290.41 42.20 290.92 46.22 291.93 50.30 C 290.59 50.35 288.96 50.85 287.68 50.36 C 285.68 48.36 285.90 44.61 285.91 42.00 C 286.31 34.77 286.78 27.56 287.03 20.32 C 284.58 20.64 282.13 20.97 279.69 21.31 C 279.41 19.92 279.14 18.53 278.88 17.14 C 285.83 15.90 292.59 15.34 299.66 15.68 Z" fill="#f4725c" />
<path d="M 54.93 16.72 C 57.77 17.42 61.02 18.04 63.57 19.50 C 65.97 20.89 67.84 23.22 69.65 25.28 C 64.75 27.71 59.47 27.85 54.38 29.54 C 51.73 30.18 51.28 32.86 50.01 34.96 C 49.92 31.54 49.90 28.12 50.09 24.69 L 51.39 23.79 C 51.82 24.51 52.26 25.23 52.70 25.95 C 53.28 24.88 53.86 23.81 54.44 22.74 C 56.48 21.52 56.53 20.52 54.75 18.98 L 54.93 16.72 Z" fill="#ffdcb8" />
<path d="M 66.95 17.64 C 70.91 19.53 73.91 21.95 76.41 25.57 C 80.08 30.43 80.74 36.27 82.69 42.08 C 80.05 43.18 77.92 44.45 75.88 46.46 C 78.22 46.48 80.56 46.43 82.90 46.41 C 82.15 47.24 81.40 48.07 80.64 48.89 C 79.17 48.97 77.70 49.06 76.22 49.16 C 77.78 50.42 79.36 51.64 80.95 52.85 L 80.37 53.58 C 78.70 53.43 77.04 53.26 75.38 53.06 C 75.85 54.58 76.33 56.11 76.81 57.63 C 76.21 58.23 75.60 58.82 74.98 59.40 C 73.99 59.16 73.00 58.92 72.01 58.67 C 62.73 54.41 54.68 46.93 48.99 38.51 C 52.05 39.25 54.87 40.02 58.00 39.05 C 62.50 37.80 67.19 37.00 71.58 35.41 C 74.32 34.34 75.36 31.80 75.04 28.99 C 75.03 24.31 69.82 20.88 66.95 17.64 Z" fill="#ffc58d" />
<path d="M 51.04 18.99 C 51.29 20.59 51.52 22.16 51.39 23.79 L 50.09 24.69 C 49.67 22.29 49.86 21.12 51.04 18.99 Z" fill="#fefaef" />
<path d="M 54.75 18.98 C 56.53 20.52 56.48 21.52 54.44 22.74 C 54.33 21.48 54.44 20.22 54.75 18.98 Z" fill="#fff9e3" />
<path d="M 124.30 19.55 C 125.18 24.54 125.94 29.56 126.78 34.56 C 124.21 34.64 121.64 34.72 119.07 34.80 C 120.73 29.69 122.35 24.57 124.30 19.55 Z" fill="#ffffff" />
<path d="M 4.89 20.49 C 10.93 20.95 15.96 23.57 21.36 26.03 C 20.78 26.93 20.21 27.84 19.69 28.78 C 15.88 25.44 13.04 24.22 7.94 23.93 C 6.66 29.01 11.12 34.87 13.97 38.74 C 14.71 38.21 15.45 37.69 16.19 37.16 C 15.60 39.60 15.18 42.08 14.85 44.57 C 10.67 38.63 6.81 32.20 4.72 25.20 C 4.76 23.63 4.81 22.06 4.89 20.49 Z" fill="#e36a85" />
<path d="M 170.54 21.42 L 172.26 24.52 C 170.62 24.43 169.01 24.21 167.40 23.93 C 168.35 24.84 169.30 25.75 170.22 26.70 C 168.99 26.55 165.49 27.10 165.79 25.00 C 165.09 22.11 168.09 20.03 170.54 21.42 Z" fill="#5cc7f5" />
<path d="M 273.54 21.42 L 275.27 24.51 C 273.58 24.48 271.95 24.18 270.29 23.89 C 271.29 24.80 272.27 25.73 273.23 26.69 C 272.00 26.55 268.49 27.11 268.79 25.00 C 268.09 22.11 271.09 20.03 273.54 21.42 Z" fill="#5cc7f5" />
<path d="M 7.94 23.93 C 13.04 24.22 15.88 25.44 19.69 28.78 C 18.25 31.45 17.05 34.24 16.19 37.16 C 15.45 37.69 14.71 38.21 13.97 38.74 C 11.12 34.87 6.66 29.01 7.94 23.93 Z" fill="#f07891" />
<path d="M 187.42 27.88 C 187.25 34.92 186.99 41.97 186.40 48.99 C 186.09 52.06 185.29 55.70 182.52 57.51 C 178.97 59.51 174.36 58.50 173.58 54.07 C 172.66 50.80 174.75 50.17 176.85 48.47 C 176.92 50.58 176.16 53.60 177.57 55.36 C 178.64 55.64 179.72 55.88 180.81 56.08 C 183.00 52.37 183.47 48.44 183.89 44.23 C 181.51 46.32 179.78 48.62 176.33 46.66 C 171.38 43.50 171.84 34.52 175.57 30.58 C 177.90 27.99 180.57 28.79 183.68 28.53 C 184.93 28.33 186.18 28.11 187.42 27.88 Z" fill="#33bcf3" />
<path d="M 148.05 28.48 C 149.60 29.19 151.10 29.96 152.61 30.73 C 152.63 32.16 152.64 33.60 152.64 35.04 C 153.69 33.31 154.70 31.39 156.10 29.93 C 158.26 28.94 161.74 30.33 161.74 33.00 C 162.29 37.70 161.64 42.40 162.60 47.10 C 161.29 47.21 159.98 47.32 158.67 47.42 C 158.36 42.51 159.36 36.86 157.69 32.21 L 156.21 32.23 C 153.03 36.01 152.80 42.50 152.51 47.20 C 151.47 47.15 150.43 47.10 149.39 47.04 C 149.36 41.83 149.41 36.71 148.25 31.59 C 147.15 32.90 146.05 34.21 144.94 35.53 L 142.72 36.50 C 144.16 33.55 145.57 30.72 148.05 28.48 Z" fill="#33bcf3" />
<path d="M 170.58 28.74 C 170.21 34.72 169.82 40.76 169.11 46.71 L 166.50 47.87 C 165.50 42.02 166.12 36.05 165.90 30.05 C 167.45 29.57 169.01 29.16 170.58 28.74 Z" fill="#33bcf3" />
<path d="M 195.35 28.80 C 194.70 33.23 193.32 38.87 194.87 43.16 C 195.52 44.79 196.08 44.58 197.61 44.65 C 201.15 41.20 200.55 34.59 201.34 30.09 C 201.26 28.07 203.85 28.92 205.10 28.60 C 204.54 34.79 204.04 40.92 204.67 47.13 C 203.50 47.07 202.32 47.01 201.15 46.94 C 201.10 45.56 201.05 44.17 201.02 42.79 C 199.83 44.48 198.49 47.62 196.03 47.43 C 192.86 47.74 190.86 44.95 190.68 42.06 C 190.39 38.02 190.62 33.93 191.01 29.90 C 192.44 29.49 193.89 29.15 195.35 28.80 Z" fill="#33bcf3" />
<path d="M 213.09 28.85 C 212.94 30.56 212.79 32.27 212.62 33.97 C 214.38 31.78 215.60 28.40 218.99 28.74 C 220.43 29.38 221.03 31.55 221.33 32.96 C 220.46 34.40 219.41 35.62 218.36 36.93 C 218.08 35.53 217.80 34.13 217.52 32.73 C 216.42 33.18 215.04 33.29 214.41 34.42 C 211.77 38.55 212.29 42.73 212.37 47.39 C 211.29 47.27 210.23 47.09 209.18 46.84 C 208.20 41.49 209.01 35.67 209.19 30.25 C 210.48 29.75 211.78 29.30 213.09 28.85 Z" fill="#33bcf3" />
<path d="M 227.35 28.80 C 226.70 33.23 225.32 38.87 226.87 43.16 C 227.52 44.79 228.08 44.58 229.61 44.65 C 233.15 41.20 232.55 34.59 233.34 30.09 C 233.27 28.06 235.84 28.92 237.10 28.60 C 236.54 34.79 236.04 40.92 236.67 47.13 C 235.50 47.07 234.32 47.01 233.15 46.94 C 233.10 45.55 233.05 44.17 233.02 42.79 C 231.83 44.48 230.50 47.62 228.03 47.43 C 224.86 47.75 222.86 44.95 222.68 42.06 C 222.39 38.02 222.62 33.93 223.01 29.90 C 224.44 29.49 225.89 29.15 227.35 28.80 Z" fill="#33bcf3" />
<path d="M 251.05 28.48 C 252.60 29.19 254.10 29.96 255.61 30.73 C 255.63 32.16 255.64 33.60 255.64 35.04 C 256.69 33.31 257.70 31.39 259.10 29.93 C 261.26 28.94 264.74 30.33 264.74 33.00 C 265.29 37.70 264.64 42.40 265.60 47.10 C 264.29 47.21 262.98 47.32 261.67 47.42 C 261.36 42.51 262.36 36.86 260.69 32.21 L 259.21 32.23 C 256.03 36.01 255.80 42.50 255.51 47.20 C 254.47 47.15 253.43 47.10 252.39 47.04 C 252.36 41.83 252.41 36.71 251.25 31.59 C 250.15 32.90 249.05 34.21 247.94 35.53 L 245.72 36.51 C 247.16 33.55 248.57 30.72 251.05 28.48 Z" fill="#33bcf3" />
<path d="M 273.58 28.74 C 273.21 34.72 272.82 40.76 272.11 46.71 L 269.50 47.87 C 268.50 42.02 269.12 36.05 268.90 30.05 C 270.45 29.57 272.01 29.16 273.58 28.74 Z" fill="#33bcf3" />
<path d="M 300.73 28.97 C 301.47 29.11 302.21 29.25 302.95 29.38 C 303.77 29.17 304.58 28.95 305.38 28.71 C 309.98 32.44 310.71 39.75 307.58 44.58 C 305.49 47.64 300.93 48.67 298.30 45.67 C 294.21 40.85 295.83 32.65 300.73 28.97 Z" fill="#f4725c" />
<path d="M 340.88 29.91 C 338.62 31.73 336.04 33.06 334.88 35.86 C 334.06 37.86 333.53 40.59 334.43 42.63 C 335.11 44.13 336.76 43.84 337.70 42.78 C 341.25 39.68 340.64 33.79 341.31 29.48 C 342.35 29.16 343.38 28.84 344.42 28.52 C 344.52 35.09 343.33 40.93 344.74 47.37 C 341.65 46.79 341.40 46.67 340.17 43.79 C 337.96 45.93 335.92 48.48 332.62 46.36 C 328.51 43.38 329.77 36.17 332.75 32.76 C 334.80 30.55 337.76 27.71 340.88 29.91 Z" fill="#f4725c" />
<path d="M 352.84 28.68 C 351.06 34.09 350.16 39.96 352.71 45.29 C 354.75 43.56 356.76 42.29 357.43 39.54 C 358.15 36.36 357.48 32.76 357.24 29.54 C 358.62 29.16 359.99 28.79 361.37 28.42 C 361.09 35.61 362.06 42.90 361.30 50.04 C 360.76 53.79 358.58 59.23 354.00 59.06 C 349.88 59.26 347.51 55.78 347.72 51.94 C 348.64 51.16 349.63 50.46 350.61 49.75 C 350.88 51.35 351.06 53.00 351.49 54.57 C 352.27 56.93 355.80 56.96 356.99 54.95 C 359.09 51.87 358.50 46.95 358.66 43.40 C 356.80 44.92 354.54 47.66 352.00 47.73 C 349.27 47.72 348.31 45.32 347.86 43.03 C 347.35 38.89 347.36 34.37 348.37 30.31 C 349.33 29.12 351.44 29.09 352.84 28.68 Z" fill="#f4725c" />
<path d="M 137.72 29.77 C 139.37 29.60 141.03 29.42 142.69 29.26 C 142.56 31.75 142.41 34.24 142.27 36.73 L 142.72 36.50 L 144.94 35.53 C 143.43 39.25 142.32 42.94 141.61 46.90 C 140.45 46.89 139.29 46.86 138.12 46.83 C 138.20 41.08 138.79 35.49 137.72 29.77 Z" fill="#33bcf3" />
<path d="M 240.72 29.77 C 242.37 29.60 244.03 29.42 245.69 29.26 C 245.56 31.75 245.41 34.24 245.27 36.73 L 245.72 36.51 L 247.94 35.53 C 246.43 39.25 245.32 42.94 244.61 46.90 C 243.45 46.89 242.29 46.86 241.12 46.83 C 241.20 41.08 241.79 35.49 240.72 29.77 Z" fill="#33bcf3" />
<path d="M 180.07 30.57 C 181.28 31.28 182.45 31.63 182.95 33.07 C 184.03 35.99 184.47 39.73 182.38 42.31 C 181.46 43.64 179.47 46.03 177.94 44.12 C 174.92 40.37 176.59 33.63 180.07 30.57 Z" fill="#ffffff" />
<path d="M 320.92 30.67 C 321.34 32.01 321.73 33.35 322.11 34.70 L 323.94 34.31 C 323.39 38.58 322.62 43.20 318.03 44.89 C 315.68 44.71 315.65 41.76 315.62 39.99 C 315.89 36.39 316.94 31.82 320.92 30.67 Z" fill="#ffffff" />
<path d="M 305.25 31.76 C 306.31 35.93 307.15 39.73 304.69 43.63 C 303.78 45.09 302.04 45.70 300.93 44.06 C 298.75 41.21 299.73 36.27 300.65 33.08 C 302.17 32.59 303.72 32.19 305.25 31.76 Z" fill="#ffffff" />
<path d="M 48.99 38.51 C 54.68 46.93 62.73 54.41 72.01 58.67 C 64.76 58.17 59.55 60.93 55.97 67.20 C 51.37 67.90 46.65 68.54 41.99 68.25 C 38.94 68.05 36.03 67.37 33.00 67.06 C 32.40 67.10 31.81 67.15 31.22 67.20 L 29.83 66.48 C 32.22 64.31 34.59 62.10 36.86 59.80 C 41.41 55.08 45.14 49.38 47.28 43.18 C 47.85 41.62 48.42 40.06 48.99 38.51 Z" fill="#fdfbfa" />
<path d="M 82.69 42.08 L 84.02 41.45 C 83.84 45.42 82.82 49.33 80.95 52.85 C 79.36 51.64 77.78 50.42 76.22 49.16 C 77.70 49.06 79.17 48.97 80.64 48.89 C 81.40 48.07 82.15 47.24 82.90 46.41 C 80.56 46.43 78.22 46.48 75.88 46.46 C 77.92 44.45 80.05 43.18 82.69 42.08 Z" fill="#8c5336" />
<path d="M 70.59 44.97 C 68.48 45.03 66.16 44.66 64.10 45.19 C 62.27 46.24 60.67 47.72 58.95 48.95 C 60.06 44.20 67.08 40.48 70.59 44.97 Z" fill="#663e29" />
<path d="M 41.81 51.10 C 39.88 50.46 37.96 49.69 35.99 49.20 C 33.73 49.41 31.61 50.79 29.47 51.50 C 31.56 46.39 39.34 46.28 41.81 51.10 Z" fill="#7e4f38" />
<path d="M 52.39 47.75 L 51.65 49.95 C 50.64 50.74 48.82 49.98 47.70 49.87 C 49.12 48.39 50.40 48.11 52.39 47.75 Z" fill="#c07f86" />
<path d="M 66.38 48.40 C 68.78 47.41 72.13 47.07 73.28 49.98 C 71.98 52.66 67.21 53.55 64.91 52.07 C 62.77 50.35 64.92 49.33 66.38 48.40 Z" fill="#fecec8" />
<path d="M 16.02 52.00 L 17.73 52.15 C 20.64 52.30 22.81 52.87 25.45 54.10 C 22.89 54.95 20.28 55.57 17.62 56.06 C 17.00 54.74 16.46 53.39 16.02 52.00 Z" fill="#854c31" />
<path d="M 50.76 52.46 C 53.26 52.88 55.08 52.83 57.50 52.05 C 57.15 53.73 56.83 55.42 56.42 57.08 C 54.51 56.63 52.22 55.73 50.29 56.39 C 49.03 56.91 47.85 57.64 46.66 58.30 C 45.79 56.88 44.97 55.42 44.13 53.98 C 46.76 54.00 48.43 53.65 50.76 52.46 Z" fill="#6f2635" />
<path d="M 33.00 52.92 C 35.31 52.43 36.51 53.86 38.35 54.93 C 36.56 56.26 35.33 57.86 32.96 57.98 C 30.90 58.29 29.72 57.10 28.15 56.04 C 29.66 54.60 30.78 53.14 33.00 52.92 Z" fill="#fecec8" />
<path d="M 75.38 53.06 C 77.04 53.26 78.70 53.43 80.37 53.58 C 79.24 54.98 78.06 56.33 76.81 57.63 C 76.33 56.11 75.85 54.58 75.38 53.06 Z" fill="#ae7354" />
<path d="M 50.29 56.39 C 52.22 55.73 54.51 56.63 56.42 57.08 C 55.50 59.34 54.76 61.89 51.97 62.31 C 49.57 62.29 47.99 60.00 46.66 58.30 C 47.85 57.64 49.03 56.91 50.29 56.39 Z" fill="#dd5579" />
<path d="M 25.42 57.14 C 24.45 58.69 23.45 60.22 22.41 61.73 C 21.26 60.67 20.17 59.57 19.14 58.43 C 21.21 57.86 23.29 57.40 25.42 57.14 Z" fill="#8f583b" />
<path d="M 25.42 57.14 C 26.60 58.62 27.37 60.29 29.25 60.96 C 31.72 62.12 34.53 60.73 36.86 59.80 C 34.59 62.10 32.22 64.31 29.83 66.48 C 28.78 65.87 27.75 65.23 26.71 64.60 C 27.18 63.29 27.65 61.98 28.11 60.67 C 26.58 61.33 25.06 61.98 23.52 62.62 C 23.14 62.33 22.77 62.04 22.41 61.73 C 23.45 60.22 24.45 58.69 25.42 57.14 Z" fill="#f0a879" />
<path d="M 72.01 58.67 C 73.00 58.92 73.99 59.16 74.98 59.40 C 75.36 59.49 75.74 59.58 76.12 59.66 C 79.12 61.50 81.72 63.72 83.56 66.77 C 84.63 69.51 85.72 71.99 85.49 75.02 C 85.30 78.47 83.71 81.23 81.81 84.00 L 79.96 84.00 C 78.11 74.25 72.10 66.82 63.89 61.55 C 62.85 62.06 61.81 62.58 60.78 63.12 C 65.00 66.34 69.09 69.46 72.20 73.83 C 74.62 76.91 76.03 80.42 77.50 84.00 L 75.71 84.00 C 72.60 75.69 67.01 69.54 59.75 64.61 C 59.06 65.31 58.39 66.02 57.73 66.74 C 64.47 71.58 68.90 76.70 72.84 84.00 L 70.57 84.00 C 69.93 82.26 69.31 82.26 68.70 84.00 L 65.65 84.00 C 66.83 82.98 67.96 81.91 69.06 80.80 C 68.67 80.19 68.24 79.59 67.79 79.00 C 66.17 80.62 64.70 82.34 63.14 84.00 L 61.28 84.00 C 63.00 81.65 64.80 79.59 66.87 77.55 C 66.37 77.06 65.86 76.59 65.33 76.13 C 62.85 78.41 60.99 81.07 59.36 84.00 L 57.77 84.00 C 56.51 82.10 55.29 80.31 54.77 78.06 C 54.06 74.04 54.41 70.95 55.97 67.20 C 59.55 60.93 64.76 58.17 72.01 58.67 Z" fill="#45524c" />
<path d="M 68.48 59.96 C 69.25 61.35 67.27 62.67 66.14 61.67 C 65.30 60.26 67.37 59.03 68.48 59.96 Z" fill="#ad5e7d" />
<path d="M 72.63 60.08 C 72.64 61.34 70.48 64.15 69.11 63.50 C 68.28 61.96 71.22 59.87 72.63 60.08 Z" fill="#e7649e" />
<path d="M 76.12 59.66 C 78.83 59.65 83.06 58.58 84.90 61.25 C 86.63 63.24 84.36 64.88 83.56 66.77 C 81.72 63.72 79.12 61.50 76.12 59.66 Z" fill="#f7b584" />
<path d="M 28.11 60.67 C 27.65 61.98 27.18 63.29 26.71 64.60 C 25.64 63.95 24.58 63.29 23.52 62.62 C 25.06 61.98 26.58 61.33 28.11 60.67 Z" fill="#9c6547" />
<path d="M 74.91 61.31 C 75.83 61.45 76.76 61.60 77.68 61.76 C 76.10 63.44 74.49 65.10 72.89 66.77 C 72.22 66.15 71.54 65.54 70.86 64.93 C 72.18 63.71 73.51 62.44 74.91 61.31 Z" fill="#d46395" />
<path d="M 63.89 61.55 C 72.10 66.82 78.11 74.25 79.96 84.00 L 77.50 84.00 C 76.03 80.42 74.62 76.91 72.20 73.83 C 69.09 69.46 65.00 66.34 60.78 63.12 C 61.81 62.58 62.85 62.06 63.89 61.55 Z" fill="#f1649f" />
<path d="M 78.71 63.55 L 80.80 64.63 C 79.05 66.36 77.30 68.09 75.59 69.85 C 75.03 69.21 74.47 68.58 73.91 67.94 C 75.42 66.44 76.95 64.78 78.71 63.55 Z" fill="#d76395" />
<path d="M 59.75 64.61 C 67.01 69.54 72.60 75.69 75.71 84.00 L 72.84 84.00 C 68.90 76.70 64.47 71.58 57.73 66.74 C 58.39 66.02 59.06 65.31 59.75 64.61 Z" fill="#f1649f" />
<path d="M 33.00 67.06 C 36.03 67.37 38.94 68.05 41.99 68.25 C 46.65 68.54 51.37 67.90 55.97 67.20 C 54.41 70.95 54.06 74.04 54.77 78.06 C 54.42 76.43 54.15 74.79 53.85 73.15 C 52.39 74.11 50.45 75.00 49.45 76.47 C 47.86 78.59 47.76 81.46 47.32 84.00 L 44.54 84.00 C 42.17 83.72 39.81 83.37 37.45 83.06 C 37.69 81.16 37.96 79.25 38.12 77.34 L 37.68 76.90 L 35.98 75.44 C 31.86 75.58 27.52 76.89 23.43 76.40 C 21.97 75.53 21.55 73.16 20.83 71.71 C 24.11 69.90 27.72 68.54 31.22 67.20 C 31.81 67.15 32.40 67.10 33.00 67.06 Z" fill="#fec18a" />
<path d="M 81.10 66.50 C 81.77 67.18 82.42 67.87 83.07 68.56 C 81.03 70.23 78.94 71.85 76.76 73.34 C 77.05 70.19 78.92 68.50 81.10 66.50 Z" fill="#e2649b" />
<path d="M 58.05 69.05 C 58.78 70.39 57.08 71.49 55.95 71.76 C 55.90 70.65 56.58 68.46 58.05 69.05 Z" fill="#dc6398" />
<path d="M 61.62 71.68 C 59.71 73.96 57.73 76.18 55.64 78.29 C 56.12 76.07 56.66 74.01 58.23 72.28 C 59.61 70.40 59.70 70.98 61.62 71.68 Z" fill="#e1649b" />
<path d="M 83.48 70.09 C 84.84 74.15 81.42 75.03 78.88 77.19 C 78.77 73.51 80.96 72.20 83.48 70.09 Z" fill="#e0649a" />
<path d="M 20.83 71.71 C 21.55 73.16 21.97 75.53 23.43 76.40 C 27.52 76.89 31.86 75.58 35.98 75.44 L 37.68 76.90 C 33.30 77.92 28.48 79.28 23.97 79.07 C 21.78 78.98 18.87 77.51 18.92 75.00 C 18.70 73.74 20.09 72.61 20.83 71.71 Z" fill="#eba781" />
<path d="M 62.75 73.00 C 63.25 73.58 63.75 74.16 64.23 74.75 C 62.03 77.30 59.91 79.90 57.80 82.52 C 56.65 78.36 60.21 75.69 62.75 73.00 Z" fill="#d76397" />
<path d="M 53.85 73.15 C 54.15 74.79 54.42 76.43 54.77 78.06 C 55.29 80.31 56.51 82.10 57.77 84.00 L 47.32 84.00 C 47.76 81.46 47.86 78.59 49.45 76.47 C 50.45 75.00 52.39 74.11 53.85 73.15 Z" fill="#ffffff" />
<path d="M 84.29 74.89 C 83.70 77.47 82.69 79.88 81.52 82.24 C 81.05 81.19 80.59 80.15 80.12 79.10 C 81.45 77.63 82.80 76.19 84.29 74.89 Z" fill="#cf6292" />
<path d="M 65.33 76.13 C 65.86 76.59 66.37 77.06 66.87 77.55 C 64.80 79.59 63.00 81.65 61.28 84.00 L 59.36 84.00 C 60.99 81.07 62.85 78.41 65.33 76.13 Z" fill="#df649b" />
<path d="M 67.79 79.00 C 68.24 79.59 68.67 80.19 69.06 80.80 C 67.96 81.91 66.83 82.98 65.65 84.00 L 63.14 84.00 C 64.70 82.34 66.17 80.62 67.79 79.00 Z" fill="#e1649c" />
<path d="M 70.57 84.00 L 68.70 84.00 C 69.31 82.26 69.93 82.26 70.57 84.00 Z" fill="#d16397" />
</svg>